<svg width="151" height="182" viewBox="0 0 151 182" fill="none" xmlns="http://www.w3.org/2000/svg">
<path d="M141.073 23.9595C124.258 -0.107059 91.0489 -7.24048 67.0369 8.05838L24.8658 34.936C19.1689 38.52 14.2825 43.2533 10.5189 48.8332C6.7553 54.4131 4.19737 60.7169 3.00861 67.3416C0.996952 78.5007 2.76508 90.0119 8.03304 100.053C4.42329 105.529 1.96129 111.679 0.795823 118.134C-0.405549 124.892 -0.245347 131.822 1.26703 138.517C2.77941 145.213 5.61352 151.539 9.60314 157.124C26.4216 181.193 59.6313 188.324 83.6397 173.026L125.811 146.148C131.508 142.564 136.395 137.831 140.158 132.251C143.922 126.671 146.48 120.367 147.668 113.742C149.679 102.583 147.913 91.0724 142.647 81.0303C146.256 75.5546 148.717 69.404 149.881 62.9503C151.084 56.1922 150.924 49.262 149.411 42.5664C147.899 35.8708 145.064 29.5448 141.073 23.9595Z" fill="#FF3E00"/>
<path d="M62.9172 159.389C56.2808 161.115 49.2747 160.762 42.8451 158.379C36.4155 155.995 30.8722 151.696 26.9638 146.062C24.5641 142.703 22.8594 138.899 21.9497 134.873C21.04 130.846 20.9436 126.678 21.6661 122.614C21.9108 121.28 22.2475 119.964 22.6739 118.676L23.4681 116.254L25.6286 117.841C30.6183 121.508 36.1972 124.295 42.1251 126.084L43.6924 126.559L43.548 128.123C43.3565 130.349 43.9591 132.57 45.2489 134.394C46.4251 136.091 48.0938 137.386 50.0297 138.105C51.9655 138.823 54.0752 138.93 56.0739 138.411C56.9904 138.166 57.864 137.783 58.6642 137.273L100.836 110.398C101.868 109.749 102.754 108.891 103.436 107.88C104.118 106.87 104.582 105.728 104.799 104.528C105.015 103.303 104.985 102.047 104.711 100.833C104.437 99.6201 103.924 98.4734 103.202 97.4603C102.025 95.7628 100.356 94.4672 98.4192 93.7483C96.4827 93.0295 94.3723 92.9219 92.3728 93.4403C91.4575 93.6853 90.5851 94.0689 89.7859 94.5779L73.6934 104.836C71.0471 106.519 68.1593 107.787 65.1299 108.597C58.4935 110.323 51.4875 109.97 45.0579 107.587C38.6284 105.203 33.0852 100.904 29.1769 95.27C26.7771 91.9113 25.0723 88.1071 24.1626 84.0806C23.2529 80.0541 23.1566 75.8865 23.8792 71.8222C24.5939 67.8386 26.1322 64.048 28.3956 60.6928C30.6591 57.3377 33.5979 54.4919 37.024 52.3374L79.1925 25.4606C81.8398 23.7754 84.7297 22.5056 87.7616 21.6956C94.398 19.9701 101.404 20.3228 107.833 22.7061C114.263 25.0893 119.806 29.3883 123.714 35.0224C126.114 38.3812 127.819 42.1855 128.729 46.212C129.638 50.2385 129.735 54.4061 129.012 58.4703C128.766 59.8045 128.43 61.1203 128.004 62.4084L127.21 64.8301L125.051 63.2456C120.061 59.5773 114.482 56.7885 108.553 54.9998L106.986 54.5242L107.13 52.9599C107.32 50.7347 106.718 48.514 105.429 46.6899C104.253 44.9927 102.584 43.6974 100.649 42.9789C98.7127 42.2604 96.603 42.1533 94.6044 42.672C93.6878 42.917 92.8143 43.3009 92.014 43.8105L49.8418 70.6861C48.8101 71.3353 47.9251 72.1926 47.2434 73.2032C46.5617 74.2137 46.0983 75.3554 45.8827 76.5552C45.665 77.7801 45.6938 79.0362 45.9674 80.2498C46.241 81.4635 46.754 82.6104 47.4763 83.6234C48.6532 85.3209 50.3225 86.6165 52.259 87.3354C54.1955 88.0543 56.3059 88.1618 58.3054 87.6435C59.2217 87.398 60.0951 87.0141 60.8956 86.5051L76.986 76.2504C79.6311 74.5656 82.5188 73.2964 85.5485 72.4867C92.1849 70.7613 99.1909 71.114 105.62 73.4972C112.05 75.8805 117.593 80.1796 121.501 85.8137C123.901 89.1725 125.606 92.9767 126.516 97.0032C127.425 101.03 127.522 105.197 126.799 109.262C126.084 113.245 124.546 117.036 122.282 120.392C120.019 123.747 117.08 126.594 113.654 128.749L71.4857 155.624C68.8384 157.309 65.9491 158.579 62.9172 159.389Z" fill="white"/>
</svg>
