<svg width="153" height="182" viewBox="0 0 153 182" fill="none" xmlns="http://www.w3.org/2000/svg">
<path d="M71.4401 0.997903L9.78925 24.5608C7.10089 25.6147 4.79317 27.4555 3.16788 29.8422C1.54259 32.2289 0.675395 35.0506 0.679703 37.9382V97.2578L29.0125 80.9754V47.6216L76.497 29.4025V0.0654297C74.7689 0.0691516 73.0558 0.38505 71.4401 0.997903Z" fill="#FF6F41"/>
<path d="M29.5146 133.84L76.497 106.762V74.0542L3.90748 115.908C2.93034 116.48 2.11895 117.297 1.55303 118.278C0.987111 119.259 0.686139 120.37 0.679688 121.503V143.416C0.704087 146.279 1.58466 149.069 3.20809 151.428C4.83152 153.786 7.12355 155.605 9.78924 156.65L71.4401 180.213C73.0558 180.825 74.7689 181.141 76.497 181.145V151.808L29.5146 133.84Z" fill="#FF6F41"/>
<path d="M149.301 64.7288C150.227 64.1983 150.995 63.4298 151.525 62.5029C152.054 61.5759 152.327 60.5243 152.313 59.4568V37.9382C152.318 35.0506 151.45 32.2289 149.825 29.8422C148.2 27.4554 145.892 25.6147 143.204 24.5608L81.5171 0.997902C79.9127 0.389282 78.2121 0.0734546 76.4961 0.0654297V29.4025L123.12 47.3346L76.4961 74.197V106.905L149.301 64.7288Z" fill="#FF3E00"/>
<path d="M81.5171 180.213L143.204 156.65C145.87 155.605 148.162 153.786 149.785 151.428C151.408 149.069 152.289 146.279 152.313 143.416V83.4863L123.981 99.8405V133.661L76.4961 151.808V181.145C78.2121 181.137 79.9127 180.821 81.5171 180.213Z" fill="#FF3E00"/>
</svg>
